<?xml version="1.0" encoding="UTF-8" standalone="no"?>
<!-- Created with Inkscape (http://www.inkscape.org/) -->

<svg
   width="297mm"
   height="210mm"
   viewBox="0 0 297 210"
   version="1.1"
   id="svg5"
   inkscape:version="1.1.2 (0a00cf5339, 2022-02-04, custom)"
   sodipodi:docname="Faceplate.svg"
   xmlns:inkscape="http://www.inkscape.org/namespaces/inkscape"
   xmlns:sodipodi="http://sodipodi.sourceforge.net/DTD/sodipodi-0.dtd"
   xmlns="http://www.w3.org/2000/svg"
   xmlns:svg="http://www.w3.org/2000/svg">
  <sodipodi:namedview
     id="namedview7"
     pagecolor="#ffffff"
     bordercolor="#666666"
     borderopacity="1.0"
     inkscape:pageshadow="2"
     inkscape:pageopacity="0.0"
     inkscape:pagecheckerboard="0"
     inkscape:document-units="mm"
     showgrid="false"
     inkscape:zoom="1.3273709"
     inkscape:cx="412.84617"
     inkscape:cy="496.47012"
     inkscape:window-width="2560"
     inkscape:window-height="1387"
     inkscape:window-x="-8"
     inkscape:window-y="-8"
     inkscape:window-maximized="1"
     inkscape:current-layer="layer1" />
  <defs
     id="defs2">
    <rect
       x="34.65497"
       y="63.282989"
       width="623.84694"
       height="229.65076"
       id="rect10248" />
    <rect
       x="49.722348"
       y="102.45817"
       width="1038.1424"
       height="549.95931"
       id="rect3422" />
    <pattern
       id="EMFhbasepattern"
       patternUnits="userSpaceOnUse"
       width="6"
       height="6"
       x="0"
       y="0" />
  </defs>
  <g
     inkscape:groupmode="layer"
     id="layer2"
     inkscape:label="Layer 2" />
  <g
     inkscape:label="Layer 1"
     inkscape:groupmode="layer"
     id="layer1">
    <text
       xml:space="preserve"
       transform="scale(0.26458333)"
       id="text3420"
       style="font-style:normal;font-variant:normal;font-weight:normal;font-stretch:normal;font-size:40px;line-height:1.25;font-family:Spotlight;-inkscape-font-specification:Spotlight;white-space:pre;shape-inside:url(#rect3422);fill:#000000;fill-opacity:1;stroke:none" />
    <g
       aria-label=" Mai Tai      Pina Colada   Mango Daquiri  Margarita




Red Wine     White Wine      &quot;Malort&quot;         Water"
       transform="matrix(0.21864544,0,0,0.21864544,43.306537,45.853536)"
       id="text10246"
       style="font-size:24.202px;line-height:1.25;font-family:Spotlight;-inkscape-font-specification:Spotlight;letter-spacing:0.12101px;white-space:pre;shape-inside:url(#rect10248)">
      <path
         d="m 55.492217,71.253728 -0.169414,7.914054 -0.508242,5.881086 c -0.0484,0.36303 0.169414,0.580848 0.532444,0.580848 h 3.364078 c 0.411434,0 0.653454,-0.24202 0.677656,-0.653454 L 59.921183,71.15692 c 0.0242,-0.387232 -0.169414,-0.556646 -0.532444,-0.556646 h -3.218866 c -0.411434,0 -0.677656,0.24202 -0.677656,0.653454 z M 41.793885,85.629716 h 3.38828 c 0.36303,0 0.629252,-0.217818 0.72606,-0.580848 l 1.597332,-6.002096 0.798666,6.074702 c 0.0484,0.338828 0.266222,0.508242 0.60505,0.508242 h 2.734826 c 0.338828,0 0.60505,-0.169414 0.750262,-0.508242 l 1.258504,-2.54121 c 0.12101,-0.266222 0.169414,-0.48404 0.169414,-0.750262 l 0.169414,-6.340924 c 0,-0.580848 -0.459838,-0.653454 -0.72606,-0.0484 l -1.911958,4.138542 -0.96808,-8.422296 c -0.0242,-0.36303 -0.24202,-0.532444 -0.629252,-0.459838 l -3.6303,0.556646 c -0.338828,0.0484 -0.580848,0.290424 -0.677656,0.629252 l -4.090138,13.093282 c -0.12101,0.411434 0.0242,0.653454 0.435636,0.653454 z"
         id="path74026" />
      <path
         d="m 61.905725,80.208468 c -0.580848,3.243068 0.629252,5.760076 3.969128,5.760076 1.185898,0 2.226584,-0.36303 2.952644,-0.96808 l 0.0242,0.314626 c 0.0242,0.193616 0.193616,0.314626 0.556646,0.314626 h 2.78323 c 0.387232,0 0.629252,-0.217818 0.701858,-0.60505 l 1.69414,-9.632396 c 0.07261,-0.387232 -0.09681,-0.60505 -0.48404,-0.60505 h -2.759028 c -0.36303,0 -0.72606,0.07261 -0.798666,0.459838 l -0.895474,5.08242 c -0.169414,0.992282 -0.919676,2.371796 -1.93616,2.371796 -0.84707,0 -1.69414,-0.508242 -1.379514,-2.371796 0.217818,-1.282706 0.871272,-2.226584 1.766746,-2.347594 0.36303,-0.0484 0.580848,-0.145212 0.653454,-0.532444 l 0.387232,-2.153978 c 0.07261,-0.387232 -0.07261,-0.653454 -0.435636,-0.72606 -0.314626,-0.07261 -0.653454,-0.09681 -1.040686,-0.09681 -3.364078,0 -5.179228,2.492806 -5.760076,5.735874 z"
         id="path74028" />
      <path
         d="m 79.936189,69.729002 c -1.282706,0 -2.492806,0.943878 -2.710624,2.129776 -0.193616,1.161696 0.677656,2.129776 1.960362,2.129776 1.282706,0 2.492806,-0.96808 2.686422,-2.129776 0.217818,-1.185898 -0.653454,-2.129776 -1.93616,-2.129776 z m -4.35636,15.900714 h 3.02525 c 0.387232,0 0.629252,-0.217818 0.701858,-0.60505 l 1.69414,-9.583992 c 0.07261,-0.411434 -0.145212,-0.60505 -0.556646,-0.532444 l -3.122058,0.508242 c -0.36303,0.07261 -0.60505,0.290424 -0.677656,0.653454 l -1.57313,8.95474 c -0.07261,0.387232 0.12101,0.60505 0.508242,0.60505 z"
         id="path74030" />
      <path
         d="m 91.916197,71.205324 -0.459838,2.517008 c -0.0484,0.387232 0.12101,0.60505 0.508242,0.60505 h 3.848118 l -1.887756,10.697284 c -0.07261,0.387232 0.12101,0.60505 0.508242,0.60505 h 3.460886 c 0.387232,0 0.629252,-0.217818 0.701858,-0.60505 L 100.4837,74.327382 h 3.84812 c 0.38723,0 0.65346,-0.217818 0.70186,-0.60505 l 0.45984,-2.517008 c 0.0726,-0.387232 -0.12101,-0.60505 -0.50824,-0.60505 H 92.618055 c -0.387232,0 -0.629252,0.217818 -0.701858,0.60505 z"
         id="path74032" />
      <path
         d="m 103.07328,80.208468 c -0.58085,3.243068 0.62925,5.760076 3.96912,5.760076 1.1859,0 2.22659,-0.36303 2.95265,-0.96808 l 0.0242,0.314626 c 0.0242,0.193616 0.19362,0.314626 0.55665,0.314626 h 2.78323 c 0.38723,0 0.62925,-0.217818 0.70185,-0.60505 l 1.69414,-9.632396 c 0.0726,-0.387232 -0.0968,-0.60505 -0.48404,-0.60505 h -2.75902 c -0.36303,0 -0.72606,0.07261 -0.79867,0.459838 l -0.89547,5.08242 c -0.16942,0.992282 -0.91968,2.371796 -1.93616,2.371796 -0.84707,0 -1.69414,-0.508242 -1.37952,-2.371796 0.21782,-1.282706 0.87127,-2.226584 1.76675,-2.347594 0.36303,-0.0484 0.58085,-0.145212 0.65345,-0.532444 l 0.38723,-2.153978 c 0.0726,-0.387232 -0.0726,-0.653454 -0.43563,-0.72606 -0.31463,-0.07261 -0.65346,-0.09681 -1.04069,-0.09681 -3.36408,0 -5.17923,2.492806 -5.76007,5.735874 z"
         id="path74034" />
      <path
         d="m 121.10374,69.729002 c -1.28271,0 -2.49281,0.943878 -2.71063,2.129776 -0.19361,1.161696 0.67766,2.129776 1.96037,2.129776 1.2827,0 2.4928,-0.96808 2.68642,-2.129776 0.21782,-1.185898 -0.65346,-2.129776 -1.93616,-2.129776 z m -4.35636,15.900714 h 3.02525 c 0.38723,0 0.62925,-0.217818 0.70186,-0.60505 l 1.69414,-9.583992 c 0.0726,-0.411434 -0.14522,-0.60505 -0.55665,-0.532444 l -3.12206,0.508242 c -0.36303,0.07261 -0.60505,0.290424 -0.67765,0.653454 l -1.57313,8.95474 c -0.0726,0.387232 0.12101,0.60505 0.50824,0.60505 z"
         id="path74036" />
      <path
         d="m 171.44391,85.629716 h 2.83164 c 0.38723,0 0.62925,-0.217818 0.70185,-0.60505 l 0.82287,-4.646784 c 3.00105,0 7.30901,-0.24202 8.13187,-4.96141 0.70186,-3.944926 -1.47632,-4.646784 -4.38056,-4.791996 -0.41143,-0.0242 -0.67765,0.217818 -0.72606,0.60505 l -0.43563,2.371796 c -0.0484,0.36303 0.0968,0.532444 0.38723,0.677656 0.38723,0.169414 0.60505,0.532444 0.48404,1.185898 -0.26622,1.476322 -1.57313,1.427918 -2.85584,1.427918 l 1.01649,-5.68747 c 0.0726,-0.387232 -0.12101,-0.60505 -0.50825,-0.60505 h -2.83163 c -0.38723,0 -0.62925,0.217818 -0.70186,0.60505 l -2.4444,13.819342 c -0.0726,0.387232 0.12101,0.60505 0.50824,0.60505 z"
         id="path74038" />
      <path
         d="m 189.15978,69.729002 c -1.2827,0 -2.4928,0.943878 -2.71062,2.129776 -0.19362,1.161696 0.67766,2.129776 1.96036,2.129776 1.28271,0 2.49281,-0.96808 2.68642,-2.129776 0.21782,-1.185898 -0.65345,-2.129776 -1.93616,-2.129776 z m -4.35636,15.900714 h 3.02525 c 0.38724,0 0.62926,-0.217818 0.70186,-0.60505 l 1.69414,-9.583992 c 0.0726,-0.411434 -0.14521,-0.60505 -0.55664,-0.532444 l -3.12206,0.508242 c -0.36303,0.07261 -0.60505,0.290424 -0.67766,0.653454 l -1.57313,8.95474 c -0.0726,0.387232 0.12101,0.60505 0.50824,0.60505 z"
         id="path74040" />
      <path
         d="m 200.24431,74.472594 c -1.08909,0 -2.37179,0.48404 -3.38828,1.306908 l -0.0242,-0.508242 c 0,-0.314626 -0.19361,-0.48404 -0.55664,-0.48404 h -3.14626 c -0.38724,0 -0.65346,0.217818 -0.72606,0.60505 l -1.69414,9.632396 c -0.0726,0.387232 0.12101,0.60505 0.50824,0.60505 h 3.31567 c 0.38723,0 0.62925,-0.217818 0.70186,-0.60505 l 1.13749,-6.365126 c 1.50053,-1.282706 3.43669,-1.33111 3.00105,1.2101 l -0.91967,5.155026 c -0.0726,0.387232 0.12101,0.60505 0.50824,0.60505 h 3.02525 c 0.38723,0 0.62925,-0.217818 0.70186,-0.60505 L 203.681,79.3856 c 0.65345,-3.6303 -1.11329,-4.913006 -3.43669,-4.913006 z"
         id="path74042" />
      <path
         d="m 205.37515,80.208468 c -0.58085,3.243068 0.62925,5.760076 3.96913,5.760076 1.18589,0 2.22658,-0.36303 2.95264,-0.96808 l 0.0242,0.314626 c 0.0242,0.193616 0.19362,0.314626 0.55665,0.314626 h 2.78323 c 0.38723,0 0.62925,-0.217818 0.70186,-0.60505 L 218.057,75.39227 c 0.0726,-0.387232 -0.0968,-0.60505 -0.48404,-0.60505 h -2.75903 c -0.36303,0 -0.72606,0.07261 -0.79867,0.459838 l -0.89547,5.08242 c -0.16942,0.992282 -0.91968,2.371796 -1.93616,2.371796 -0.84707,0 -1.69414,-0.508242 -1.37952,-2.371796 0.21782,-1.282706 0.87128,-2.226584 1.76675,-2.347594 0.36303,-0.0484 0.58085,-0.145212 0.65345,-0.532444 l 0.38724,-2.153978 c 0.0726,-0.387232 -0.0726,-0.653454 -0.43564,-0.72606 -0.31463,-0.07261 -0.65345,-0.09681 -1.04069,-0.09681 -3.36407,0 -5.17922,2.492806 -5.76007,5.735874 z"
         id="path74044" />
      <path
         d="m 234.82897,70.939102 -0.55665,3.122058 c -0.0726,0.48404 0.16941,0.60505 0.62925,0.387232 1.45212,-0.677656 3.04945,-0.48404 3.77551,0.84707 0.16942,0.314626 0.38724,0.411434 0.75027,0.266222 l 2.25078,-0.919676 c 0.38723,-0.169414 0.55665,-0.435636 0.45984,-0.798666 -0.53244,-2.032968 -2.12978,-3.606098 -5.71167,-3.606098 -0.31463,0 -0.62925,0.0242 -0.91968,0.0484 -0.38723,0.0484 -0.62925,0.290424 -0.67765,0.653454 z m -7.06699,7.163792 c -0.79866,4.47737 1.71834,7.793044 6.19571,7.841448 2.88004,0.0242 5.42125,-1.669938 6.75236,-3.920724 0.19362,-0.338828 0.0968,-0.60505 -0.19361,-0.774464 l -2.12978,-1.040686 c -0.31463,-0.145212 -0.55665,-0.0484 -0.87127,0.24202 -2.12978,2.226584 -5.9779,1.113292 -5.37285,-2.323392 l 1.1617,-6.510338 c 0.0726,-0.459838 -0.19362,-0.677656 -0.65345,-0.459838 -2.49281,1.306908 -4.35636,3.87232 -4.88881,6.945974 z"
         id="path74046" />
      <path
         d="m 243.05762,80.208468 c -0.55665,3.243068 1.71834,5.735874 5.22763,5.735874 3.50929,0 6.67975,-2.492806 7.2364,-5.735874 0.43563,-2.395998 -0.72606,-4.428966 -2.80743,-5.300238 -0.36303,-0.169414 -0.65346,0.0242 -0.72606,0.435636 l -0.87128,4.8404 c -0.26622,1.500524 -1.2827,2.444402 -2.27498,2.444402 -1.01649,0 -1.62154,-0.943878 -1.35532,-2.444402 0.21782,-1.258504 1.08909,-2.371796 2.10558,-2.468604 0.36303,-0.0484 0.58085,-0.12101 0.65345,-0.508242 l 0.38723,-2.105574 c 0.0726,-0.411434 -0.14521,-0.653454 -0.55664,-0.653454 -3.31568,0.12101 -6.43773,2.54121 -7.01858,5.760076 z"
         id="path74048" />
      <path
         d="m 257.11896,85.629716 h 3.31567 c 0.38724,0 0.62926,-0.217818 0.70186,-0.60505 l 2.58962,-14.64221 c 0.0726,-0.411434 -0.14522,-0.629252 -0.55665,-0.556646 l -3.41248,0.508242 c -0.36303,0.0484 -0.60505,0.290424 -0.67766,0.653454 l -2.4686,14.03716 c -0.0726,0.387232 0.12101,0.60505 0.50824,0.60505 z"
         id="path74050" />
      <path
         d="m 264.06494,80.208468 c -0.58085,3.243068 0.62925,5.760076 3.96912,5.760076 1.1859,0 2.22659,-0.36303 2.95265,-0.96808 l 0.0242,0.314626 c 0.0242,0.193616 0.19362,0.314626 0.55665,0.314626 h 2.78323 c 0.38723,0 0.62925,-0.217818 0.70185,-0.60505 l 1.69414,-9.632396 c 0.0726,-0.387232 -0.0968,-0.60505 -0.48404,-0.60505 h -2.75902 c -0.36303,0 -0.72606,0.07261 -0.79867,0.459838 l -0.89547,5.08242 c -0.16942,0.992282 -0.91968,2.371796 -1.93616,2.371796 -0.84707,0 -1.69414,-0.508242 -1.37952,-2.371796 0.21782,-1.282706 0.87127,-2.226584 1.76675,-2.347594 0.36303,-0.0484 0.58085,-0.145212 0.65345,-0.532444 l 0.38723,-2.153978 c 0.0726,-0.387232 -0.0726,-0.653454 -0.43563,-0.72606 -0.31463,-0.07261 -0.65346,-0.09681 -1.04069,-0.09681 -3.36408,0 -5.17923,2.492806 -5.76007,5.735874 z"
         id="path74052" />
      <path
         d="m 277.71485,80.23267 c -0.58085,3.243068 1.1859,5.711672 4.71939,5.711672 1.50053,0 2.61382,-0.48404 3.43669,-1.258504 l 0.0242,0.459838 c 0.0242,0.314626 0.19361,0.48404 0.55664,0.48404 h 3.14626 c 0.38724,0 0.62926,-0.217818 0.70186,-0.60505 l 2.58962,-14.64221 c 0.0726,-0.411434 -0.14522,-0.629252 -0.55665,-0.556646 l -3.41248,0.508242 c -0.36303,0.0484 -0.60505,0.290424 -0.67766,0.653454 l -1.62153,9.19676 c -0.26622,1.500524 -1.40372,2.686422 -2.396,2.686422 -1.01648,0 -1.62153,-1.185898 -1.35531,-2.686422 0.26622,-1.500524 1.2827,-2.710624 2.29919,-2.710624 0.0968,0 0.19361,0 0.26622,0.0242 0.16941,0.0484 0.29042,-0.169414 0.36303,-0.580848 l 0.31463,-1.742544 c 0.0726,-0.36303 -0.0726,-0.60505 -0.41144,-0.653454 -0.29042,-0.0484 -0.60505,-0.07261 -0.96808,-0.07261 -3.53349,0 -6.43773,2.54121 -7.01858,5.784278 z"
         id="path74054" />
      <path
         d="m 293.22836,80.208468 c -0.58085,3.243068 0.62925,5.760076 3.96913,5.760076 1.18589,0 2.22658,-0.36303 2.95264,-0.96808 l 0.0242,0.314626 c 0.0242,0.193616 0.19362,0.314626 0.55665,0.314626 h 2.78323 c 0.38723,0 0.62925,-0.217818 0.70186,-0.60505 l 1.69414,-9.632396 c 0.0726,-0.387232 -0.0968,-0.60505 -0.48404,-0.60505 h -2.75903 c -0.36303,0 -0.72606,0.07261 -0.79867,0.459838 l -0.89547,5.08242 c -0.16942,0.992282 -0.91968,2.371796 -1.93616,2.371796 -0.84707,0 -1.69414,-0.508242 -1.37952,-2.371796 0.21782,-1.282706 0.87128,-2.226584 1.76675,-2.347594 0.36303,-0.0484 0.58085,-0.145212 0.65345,-0.532444 l 0.38724,-2.153978 c 0.0726,-0.387232 -0.0726,-0.653454 -0.43564,-0.72606 -0.31463,-0.07261 -0.65345,-0.09681 -1.04069,-0.09681 -3.36407,0 -5.17922,2.492806 -5.76007,5.735874 z"
         id="path74056" />
      <path
         d="m 344.9722,71.253728 -0.16942,7.914054 -0.50824,5.881086 c -0.0484,0.36303 0.16941,0.580848 0.53244,0.580848 h 3.36408 c 0.41144,0 0.65346,-0.24202 0.67766,-0.653454 l 0.53244,-13.819342 c 0.0242,-0.387232 -0.16941,-0.556646 -0.53244,-0.556646 h -3.21887 c -0.41143,0 -0.67765,0.24202 -0.67765,0.653454 z m -13.69834,14.375988 h 3.38828 c 0.36303,0 0.62926,-0.217818 0.72606,-0.580848 l 1.59734,-6.002096 0.79866,6.074702 c 0.0484,0.338828 0.26622,0.508242 0.60505,0.508242 h 2.73483 c 0.33883,0 0.60505,-0.169414 0.75026,-0.508242 l 1.2585,-2.54121 c 0.12101,-0.266222 0.16942,-0.48404 0.16942,-0.750262 l 0.16941,-6.340924 c 0,-0.580848 -0.45984,-0.653454 -0.72606,-0.0484 l -1.91196,4.138542 -0.96808,-8.422296 c -0.0242,-0.36303 -0.24202,-0.532444 -0.62925,-0.459838 l -3.6303,0.556646 c -0.33883,0.0484 -0.58085,0.290424 -0.67765,0.629252 l -4.09014,13.093282 c -0.12101,0.411434 0.0242,0.653454 0.43563,0.653454 z"
         id="path74058" />
      <path
         d="m 351.38571,80.208468 c -0.58085,3.243068 0.62925,5.760076 3.96913,5.760076 1.18589,0 2.22658,-0.36303 2.95264,-0.96808 l 0.0242,0.314626 c 0.0242,0.193616 0.19362,0.314626 0.55665,0.314626 h 2.78323 c 0.38723,0 0.62925,-0.217818 0.70186,-0.60505 l 1.69414,-9.632396 c 0.0726,-0.387232 -0.0968,-0.60505 -0.48404,-0.60505 h -2.75903 c -0.36303,0 -0.72606,0.07261 -0.79867,0.459838 l -0.89547,5.08242 c -0.16942,0.992282 -0.91968,2.371796 -1.93616,2.371796 -0.84707,0 -1.69414,-0.508242 -1.37952,-2.371796 0.21782,-1.282706 0.87128,-2.226584 1.76675,-2.347594 0.36303,-0.0484 0.58085,-0.145212 0.65345,-0.532444 l 0.38724,-2.153978 c 0.0726,-0.387232 -0.0726,-0.653454 -0.43564,-0.72606 -0.31463,-0.07261 -0.65345,-0.09681 -1.04069,-0.09681 -3.36407,0 -5.17922,2.492806 -5.76007,5.735874 z"
         id="path74060" />
      <path
         d="m 374.08716,74.472594 c -1.08909,0 -2.37179,0.48404 -3.38828,1.306908 l -0.0242,-0.508242 c 0,-0.314626 -0.19362,-0.48404 -0.55664,-0.48404 h -3.14626 c -0.38724,0 -0.65346,0.217818 -0.72606,0.60505 l -1.69414,9.632396 c -0.0726,0.387232 0.12101,0.60505 0.50824,0.60505 h 3.31567 c 0.38723,0 0.62925,-0.217818 0.70186,-0.60505 l 1.13749,-6.365126 c 1.50053,-1.282706 3.43669,-1.33111 3.00105,1.2101 l -0.91968,5.155026 c -0.0726,0.387232 0.12101,0.60505 0.50825,0.60505 h 3.02525 c 0.38723,0 0.62925,-0.217818 0.70185,-0.60505 l 0.99229,-5.639066 c 0.65345,-3.6303 -1.1133,-4.913006 -3.43669,-4.913006 z"
         id="path74062" />
      <path
         d="m 378.15309,89.332622 c -0.14521,0.36303 -0.0726,0.60505 0.26623,0.750262 4.79199,1.863554 10.9635,-0.580848 12.1494,-5.179228 1.1617,-4.525774 1.57313,-8.640114 -1.54893,-10.019628 -0.38723,-0.169414 -0.67765,0.0242 -0.75026,0.435636 l -0.89547,4.985612 c -0.26623,1.476322 -1.30691,2.468604 -2.29919,2.468604 -0.99229,0 -2.03297,-0.314626 -1.64574,-2.468604 0.26622,-1.548928 1.2101,-2.565412 2.3718,-2.444402 0.38723,0.0242 0.62925,-0.0484 0.70185,-0.459838 l 0.41144,-2.323392 c 0.0726,-0.387232 -0.12101,-0.677656 -0.53245,-0.677656 -0.36303,0 -0.75026,0.0242 -1.18589,0.0484 -3.5335,0.290424 -5.42125,2.517008 -6.0021,5.735874 -0.55665,3.243068 0.70186,5.760076 4.21115,5.760076 1.37951,0 2.37179,-0.36303 3.12206,-1.016484 -0.58085,2.29919 -3.5335,3.049452 -6.75236,1.960362 -0.41144,-0.12101 -0.67766,0 -0.82287,0.411434 z"
         id="path74064" />
      <path
         d="m 393.49716,80.208468 c -0.55664,3.243068 1.71835,5.735874 5.22764,5.735874 3.50929,0 6.67975,-2.492806 7.23639,-5.735874 0.43564,-2.395998 -0.72606,-4.428966 -2.80743,-5.300238 -0.36303,-0.169414 -0.65345,0.0242 -0.72606,0.435636 l -0.87127,4.8404 c -0.26622,1.500524 -1.28271,2.444402 -2.27499,2.444402 -1.01648,0 -1.62153,-0.943878 -1.35531,-2.444402 0.21782,-1.258504 1.08909,-2.371796 2.10557,-2.468604 0.36303,-0.0484 0.58085,-0.12101 0.65346,-0.508242 l 0.38723,-2.105574 c 0.0726,-0.411434 -0.14521,-0.653454 -0.55665,-0.653454 -3.31567,0.12101 -6.43773,2.54121 -7.01858,5.760076 z"
         id="path74066" />
      <path
         d="m 415.66617,85.629716 h 3.6787 c 3.00105,0 8.22868,-1.137494 9.36618,-7.62363 0.94388,-5.32444 -1.59733,-6.89757 -4.67099,-7.284802 -0.38723,-0.0484 -0.65345,0.193616 -0.72606,0.580848 l -0.58085,3.339876 c -0.0726,0.36303 0.0968,0.556646 0.41144,0.677656 0.94388,0.290424 1.50052,1.08909 1.2101,2.78323 -0.48404,2.638018 -2.80743,3.170462 -4.16275,2.976846 l 1.74255,-9.874416 c 0.0726,-0.387232 -0.12101,-0.60505 -0.50824,-0.60505 h -3.12206 c -0.38723,0 -0.62925,0.217818 -0.70186,0.60505 l -2.4444,13.819342 c -0.0726,0.387232 0.12101,0.60505 0.50824,0.60505 z"
         id="path74068" />
      <path
         d="m 430.40521,80.208468 c -0.58085,3.243068 0.62925,5.760076 3.96913,5.760076 1.18589,0 2.22658,-0.36303 2.95264,-0.96808 l 0.0242,0.314626 c 0.0242,0.193616 0.19362,0.314626 0.55665,0.314626 h 2.78323 c 0.38723,0 0.62925,-0.217818 0.70186,-0.60505 l 1.69414,-9.632396 c 0.0726,-0.387232 -0.0968,-0.60505 -0.48404,-0.60505 h -2.75903 c -0.36303,0 -0.72606,0.07261 -0.79867,0.459838 l -0.89547,5.08242 c -0.16942,0.992282 -0.91968,2.371796 -1.93616,2.371796 -0.84707,0 -1.69414,-0.508242 -1.37952,-2.371796 0.21782,-1.282706 0.87128,-2.226584 1.76675,-2.347594 0.36303,-0.0484 0.58085,-0.145212 0.65345,-0.532444 l 0.38724,-2.153978 c 0.0726,-0.387232 -0.0726,-0.653454 -0.43564,-0.72606 -0.31463,-0.07261 -0.65345,-0.09681 -1.04069,-0.09681 -3.36407,0 -5.17922,2.492806 -5.76007,5.735874 z"
         id="path74070" />
      <path
         d="m 444.05514,80.208468 c -0.55665,3.243068 0.70186,5.735874 4.21115,5.735874 1.37951,0 2.37179,-0.36303 3.12206,-1.016484 l -0.79867,5.179228 c -0.0726,0.411434 0.14521,0.60505 0.53244,0.60505 h 3.14626 c 0.38724,0 0.62926,-0.217818 0.70186,-0.60505 l 2.29919,-12.996474 0.36303,-1.669938 c 0.0968,-0.411434 -0.0968,-0.629252 -0.48404,-0.629252 h -3.19466 c -0.36303,0 -0.65346,0.193616 -0.77447,0.532444 v 0.0242 c -0.0968,0.266222 -0.16941,0.459838 -0.21781,0.72606 l -0.75027,4.23535 c -0.24202,1.476322 -1.2827,2.686422 -2.27498,2.686422 -1.01649,0 -2.05717,-0.556646 -1.69414,-2.686422 0.29042,-1.57313 1.3069,-2.734826 2.4202,-2.686422 0.41143,0 0.65345,-0.12101 0.72606,-0.532444 l 0.31462,-1.839352 c 0.0726,-0.338828 -0.0242,-0.60505 -0.38723,-0.677656 -0.36303,-0.09681 -0.79867,-0.145212 -1.28271,-0.145212 -3.50929,0 -5.39704,2.517008 -5.97789,5.760076 z"
         id="path74072" />
      <path
         d="m 466.17575,81.733194 c -1.52473,1.33111 -3.46089,1.355312 -3.00105,-1.185898 l 0.89548,-5.155026 c 0.0726,-0.387232 -0.0968,-0.60505 -0.48404,-0.60505 h -3.02525 c -0.38724,0 -0.65346,0.217818 -0.72606,0.60505 l -0.99229,5.639066 c -0.62925,3.6303 1.1133,4.913006 3.43669,4.913006 1.08909,0 2.396,-0.48404 3.41248,-1.33111 v 0.508242 c 0.0242,0.338828 0.21782,0.508242 0.58085,0.508242 h 3.12206 c 0.38723,0 0.62925,-0.217818 0.70185,-0.60505 l 1.69414,-9.632396 c 0.0726,-0.387232 -0.0968,-0.60505 -0.48404,-0.60505 h -3.29147 c -0.38723,0 -0.65345,0.217818 -0.72606,0.60505 z"
         id="path74074" />
      <path
         d="m 477.1392,69.729002 c -1.28271,0 -2.49281,0.943878 -2.71062,2.129776 -0.19362,1.161696 0.67765,2.129776 1.96036,2.129776 1.2827,0 2.4928,-0.96808 2.68642,-2.129776 0.21782,-1.185898 -0.65345,-2.129776 -1.93616,-2.129776 z m -4.35636,15.900714 h 3.02525 c 0.38723,0 0.62925,-0.217818 0.70186,-0.60505 l 1.69414,-9.583992 c 0.0726,-0.411434 -0.14521,-0.60505 -0.55665,-0.532444 l -3.12206,0.508242 c -0.36303,0.07261 -0.60505,0.290424 -0.67765,0.653454 l -1.57313,8.95474 c -0.0726,0.387232 0.12101,0.60505 0.50824,0.60505 z"
         id="path74076" />
      <path
         d="m 484.73864,76.23934 0.0242,-0.895474 c 0.0242,-0.387232 -0.16941,-0.556646 -0.53244,-0.556646 h -3.12206 c -0.38723,0 -0.65345,0.217818 -0.72606,0.60505 l -1.69414,9.632396 c -0.0726,0.387232 0.12101,0.60505 0.50824,0.60505 h 3.29148 c 0.38723,0 0.62925,-0.217818 0.70185,-0.60505 l 0.62926,-3.581896 c 0.48404,-2.710624 2.32339,-3.194664 3.99333,-3.14626 0.41143,0 0.67765,-0.217818 0.75026,-0.60505 l 0.43563,-2.589614 c 0.0726,-0.36303 -0.0484,-0.60505 -0.41143,-0.653454 -1.2343,-0.12101 -2.66222,0.580848 -3.84812,1.790948 z"
         id="path74078" />
      <path
         d="m 493.9354,69.729002 c -1.2827,0 -2.4928,0.943878 -2.71062,2.129776 -0.19362,1.161696 0.67766,2.129776 1.96036,2.129776 1.28271,0 2.49281,-0.96808 2.68642,-2.129776 0.21782,-1.185898 -0.65345,-2.129776 -1.93616,-2.129776 z m -4.35636,15.900714 h 3.02525 c 0.38724,0 0.62926,-0.217818 0.70186,-0.60505 l 1.69414,-9.583992 c 0.0726,-0.411434 -0.14521,-0.60505 -0.55664,-0.532444 l -3.12206,0.508242 c -0.36303,0.07261 -0.60505,0.290424 -0.67766,0.653454 l -1.57313,8.95474 c -0.0726,0.387232 0.12101,0.60505 0.50824,0.60505 z"
         id="path74080" />
      <path
         d="m 525.95465,71.253728 -0.16942,7.914054 -0.50824,5.881086 c -0.0484,0.36303 0.16942,0.580848 0.53245,0.580848 h 3.36407 c 0.41144,0 0.65346,-0.24202 0.67766,-0.653454 l 0.53244,-13.819342 c 0.0242,-0.387232 -0.16941,-0.556646 -0.53244,-0.556646 h -3.21887 c -0.41143,0 -0.67765,0.24202 -0.67765,0.653454 z m -13.69833,14.375988 h 3.38828 c 0.36303,0 0.62925,-0.217818 0.72606,-0.580848 l 1.59733,-6.002096 0.79866,6.074702 c 0.0484,0.338828 0.26623,0.508242 0.60505,0.508242 h 2.73483 c 0.33883,0 0.60505,-0.169414 0.75026,-0.508242 l 1.25851,-2.54121 c 0.12101,-0.266222 0.16941,-0.48404 0.16941,-0.750262 l 0.16941,-6.340924 c 0,-0.580848 -0.45983,-0.653454 -0.72606,-0.0484 l -1.91195,4.138542 -0.96808,-8.422296 c -0.0242,-0.36303 -0.24202,-0.532444 -0.62926,-0.459838 l -3.6303,0.556646 c -0.33882,0.0484 -0.58084,0.290424 -0.67765,0.629252 l -4.09014,13.093282 c -0.12101,0.411434 0.0242,0.653454 0.43564,0.653454 z"
         id="path74082" />
      <path
         d="m 532.36816,80.208468 c -0.58085,3.243068 0.62925,5.760076 3.96913,5.760076 1.1859,0 2.22658,-0.36303 2.95264,-0.96808 l 0.0242,0.314626 c 0.0242,0.193616 0.19362,0.314626 0.55665,0.314626 h 2.78323 c 0.38723,0 0.62925,-0.217818 0.70186,-0.60505 l 1.69414,-9.632396 c 0.0726,-0.387232 -0.0968,-0.60505 -0.48404,-0.60505 h -2.75903 c -0.36303,0 -0.72606,0.07261 -0.79867,0.459838 l -0.89547,5.08242 c -0.16941,0.992282 -0.91968,2.371796 -1.93616,2.371796 -0.84707,0 -1.69414,-0.508242 -1.37951,-2.371796 0.21781,-1.282706 0.87127,-2.226584 1.76674,-2.347594 0.36303,-0.0484 0.58085,-0.145212 0.65346,-0.532444 l 0.38723,-2.153978 c 0.0726,-0.387232 -0.0726,-0.653454 -0.43564,-0.72606 -0.31462,-0.07261 -0.65345,-0.09681 -1.04068,-0.09681 -3.36408,0 -5.17923,2.492806 -5.76008,5.735874 z"
         id="path74084" />
      <path
         d="m 551.58456,76.23934 0.0242,-0.895474 c 0.0242,-0.387232 -0.16941,-0.556646 -0.53244,-0.556646 h -3.12206 c -0.38723,0 -0.65346,0.217818 -0.72606,0.60505 l -1.69414,9.632396 c -0.0726,0.387232 0.12101,0.60505 0.50824,0.60505 h 3.29147 c 0.38723,0 0.62925,-0.217818 0.70186,-0.60505 l 0.62925,-3.581896 c 0.48404,-2.710624 2.32339,-3.194664 3.99333,-3.14626 0.41144,0 0.67766,-0.217818 0.75026,-0.60505 l 0.43564,-2.589614 c 0.0726,-0.36303 -0.0484,-0.60505 -0.41143,-0.653454 -1.23431,-0.12101 -2.66222,0.580848 -3.84812,1.790948 z"
         id="path74086" />
      <path
         d="m 555.239,89.332622 c -0.14521,0.36303 -0.0726,0.60505 0.26622,0.750262 4.792,1.863554 10.96351,-0.580848 12.14941,-5.179228 1.16169,-4.525774 1.57313,-8.640114 -1.54893,-10.019628 -0.38723,-0.169414 -0.67766,0.0242 -0.75026,0.435636 l -0.89548,4.985612 c -0.26622,1.476322 -1.3069,2.468604 -2.29919,2.468604 -0.99228,0 -2.03296,-0.314626 -1.64573,-2.468604 0.26622,-1.548928 1.2101,-2.565412 2.37179,-2.444402 0.38724,0.0242 0.62926,-0.0484 0.70186,-0.459838 l 0.41144,-2.323392 c 0.0726,-0.387232 -0.12101,-0.677656 -0.53245,-0.677656 -0.36303,0 -0.75026,0.0242 -1.1859,0.0484 -3.53349,0.290424 -5.42124,2.517008 -6.00209,5.735874 -0.55665,3.243068 0.70186,5.760076 4.21115,5.760076 1.37951,0 2.37179,-0.36303 3.12205,-1.016484 -0.58084,2.29919 -3.53349,3.049452 -6.75235,1.960362 -0.41144,-0.12101 -0.67766,0 -0.82287,0.411434 z"
         id="path74088" />
      <path
         d="m 570.48626,80.208468 c -0.58085,3.243068 0.62925,5.760076 3.96913,5.760076 1.1859,0 2.22658,-0.36303 2.95264,-0.96808 l 0.0242,0.314626 c 0.0242,0.193616 0.19361,0.314626 0.55664,0.314626 h 2.78323 c 0.38723,0 0.62925,-0.217818 0.70186,-0.60505 l 1.69414,-9.632396 c 0.0726,-0.387232 -0.0968,-0.60505 -0.48404,-0.60505 h -2.75903 c -0.36303,0 -0.72606,0.07261 -0.79866,0.459838 l -0.89548,5.08242 c -0.16941,0.992282 -0.91967,2.371796 -1.93616,2.371796 -0.84707,0 -1.69414,-0.508242 -1.37951,-2.371796 0.21782,-1.282706 0.87127,-2.226584 1.76674,-2.347594 0.36303,-0.0484 0.58085,-0.145212 0.65346,-0.532444 l 0.38723,-2.153978 c 0.0726,-0.387232 -0.0726,-0.653454 -0.43564,-0.72606 -0.31462,-0.07261 -0.65345,-0.09681 -1.04068,-0.09681 -3.36408,0 -5.17923,2.492806 -5.76008,5.735874 z"
         id="path74090" />
      <path
         d="m 589.7026,76.23934 0.0242,-0.895474 c 0.0242,-0.387232 -0.16941,-0.556646 -0.53244,-0.556646 h -3.12206 c -0.38723,0 -0.65345,0.217818 -0.72606,0.60505 l -1.69414,9.632396 c -0.0726,0.387232 0.12101,0.60505 0.50824,0.60505 h 3.29147 c 0.38724,0 0.62926,-0.217818 0.70186,-0.60505 l 0.62925,-3.581896 c 0.48404,-2.710624 2.3234,-3.194664 3.99333,-3.14626 0.41144,0 0.67766,-0.217818 0.75027,-0.60505 l 0.43563,-2.589614 c 0.0726,-0.36303 -0.0484,-0.60505 -0.41143,-0.653454 -1.2343,-0.12101 -2.66222,0.580848 -3.84812,1.790948 z"
         id="path74092" />
      <path
         d="m 598.89939,69.729002 c -1.2827,0 -2.4928,0.943878 -2.71062,2.129776 -0.19362,1.161696 0.67765,2.129776 1.96036,2.129776 1.28271,0 2.49281,-0.96808 2.68642,-2.129776 0.21782,-1.185898 -0.65345,-2.129776 -1.93616,-2.129776 z m -4.35636,15.900714 h 3.02525 c 0.38723,0 0.62925,-0.217818 0.70186,-0.60505 l 1.69414,-9.583992 c 0.0726,-0.411434 -0.14521,-0.60505 -0.55665,-0.532444 l -3.12205,0.508242 c -0.36303,0.07261 -0.60505,0.290424 -0.67766,0.653454 l -1.57313,8.95474 c -0.0726,0.387232 0.12101,0.60505 0.50824,0.60505 z"
         id="path74094" />
      <path
         d="m 608.26554,69.82581 -3.41248,0.508242 c -0.36303,0.0484 -0.60505,0.290424 -0.67766,0.653454 l -0.58084,3.364078 h -1.01649 c -0.38723,0 -0.65345,0.217818 -0.70186,0.60505 l -0.14521,0.750262 c -0.0726,0.387232 0.12101,0.60505 0.50824,0.60505 h 1.01649 l -1.54893,8.71272 c -0.0726,0.387232 0.12101,0.60505 0.50824,0.60505 h 3.31568 c 0.38723,0 0.62925,-0.217818 0.70185,-0.60505 l 1.54893,-8.71272 h 1.01649 c 0.38723,0 0.62925,-0.217818 0.70185,-0.60505 l 0.14522,-0.750262 c 0.0484,-0.387232 -0.12101,-0.60505 -0.50825,-0.60505 h -1.01648 l 0.70186,-3.969128 c 0.0726,-0.411434 -0.14521,-0.629252 -0.55665,-0.556646 z"
         id="path74096" />
      <path
         d="m 610.05651,80.208468 c -0.58084,3.243068 0.62926,5.760076 3.96913,5.760076 1.1859,0 2.22659,-0.36303 2.95265,-0.96808 l 0.0242,0.314626 c 0.0242,0.193616 0.19361,0.314626 0.55664,0.314626 h 2.78323 c 0.38724,0 0.62926,-0.217818 0.70186,-0.60505 l 1.69414,-9.632396 c 0.0726,-0.387232 -0.0968,-0.60505 -0.48404,-0.60505 h -2.75903 c -0.36303,0 -0.72606,0.07261 -0.79866,0.459838 l -0.89548,5.08242 c -0.16941,0.992282 -0.91967,2.371796 -1.93616,2.371796 -0.84707,0 -1.69414,-0.508242 -1.37951,-2.371796 0.21782,-1.282706 0.87127,-2.226584 1.76675,-2.347594 0.36303,-0.0484 0.58084,-0.145212 0.65345,-0.532444 l 0.38723,-2.153978 c 0.0726,-0.387232 -0.0726,-0.653454 -0.43563,-0.72606 -0.31463,-0.07261 -0.65346,-0.09681 -1.04069,-0.09681 -3.36408,0 -5.17923,2.492806 -5.76008,5.735874 z"
         id="path74098" />
      <path
         d="m 33.274783,236.89223 h 2.831634 c 0.387232,0 0.629252,-0.21782 0.701858,-0.60505 l 0.72606,-4.13854 c 0.338828,0 0.653454,-0.0242 0.992282,-0.0242 0.992282,0 2.734826,-0.21781 3.848118,-0.77446 1.427918,-0.70186 2.613816,-1.98456 3.02525,-4.42897 0.895474,-5.05821 -2.202382,-5.05821 -6.0505,-5.05821 h -3.436684 c -0.387232,0 -0.629252,0.21781 -0.701858,0.60505 l -2.444402,13.81934 c -0.07261,0.38723 0.12101,0.60505 0.508242,0.60505 z m 4.96141,-8.64012 0.48404,-2.80743 c 1.403716,0 2.807432,-0.0968 2.54121,1.37952 -0.266222,1.47632 -1.621534,1.42791 -3.02525,1.42791 z m 0.943878,5.83269 0.798666,2.37179 c 0.09681,0.29043 0.290424,0.43564 0.629252,0.43564 h 2.807432 c 0.459838,0 0.701858,-0.29043 0.556646,-0.72606 l -1.016484,-3.04945 c -0.09681,-0.36303 -0.387232,-0.43564 -0.750262,-0.29043 -0.750262,0.26622 -1.500524,0.43564 -2.468604,0.53245 -0.459838,0.0242 -0.677656,0.31462 -0.556646,0.72606 z"
         id="path74100" />
      <path
         d="m 47.48133,227.93749 c -1.984564,2.4928 -2.17818,7.16379 0.314626,8.56751 1.621534,0.91967 5.397045,1.2585 8.010861,-0.36303 0.290424,-0.21782 0.387232,-0.48404 0.266222,-0.82287 l -0.387232,-1.08909 c -0.12101,-0.38723 -0.411434,-0.48404 -0.798666,-0.33883 -4.114339,1.52473 -6.123105,-0.21782 -4.695187,-3.41248 0.629252,-1.42792 2.420199,-2.3718 3.267269,-1.69414 0.556646,0.41143 -0.0484,1.57313 -1.645735,1.79095 -0.36303,0.0484 -0.60505,0.16941 -0.677656,0.48404 -0.09681,0.36303 -0.169414,0.79866 -0.193616,1.2343 -0.0242,0.38723 0.169414,0.60505 0.580848,0.62925 3.218865,0.19362 6.292519,-1.47632 5.663267,-4.45317 -0.677656,-3.21886 -7.115387,-3.79971 -9.705001,-0.53244 z"
         id="path74102" />
      <path
         d="m 58.977262,231.49518 c -0.580848,3.24307 1.185898,5.71167 4.71939,5.71167 1.500524,0 2.613816,-0.48404 3.436684,-1.2585 l 0.0242,0.45984 c 0.0242,0.31462 0.193616,0.48404 0.556646,0.48404 h 3.14626 c 0.387232,0 0.629252,-0.21782 0.701858,-0.60505 l 2.589614,-14.64221 c 0.07261,-0.41144 -0.145212,-0.62925 -0.556646,-0.55665 l -3.412482,0.50824 c -0.36303,0.0484 -0.60505,0.29043 -0.677656,0.65346 l -1.621534,9.19676 c -0.266222,1.50052 -1.403716,2.68642 -2.395998,2.68642 -1.016484,0 -1.621534,-1.1859 -1.355312,-2.68642 0.266222,-1.50053 1.282706,-2.71063 2.29919,-2.71063 0.09681,0 0.193616,0 0.266222,0.0242 0.169414,0.0484 0.290424,-0.16942 0.36303,-0.58085 l 0.314626,-1.74255 c 0.07261,-0.36303 -0.07261,-0.60505 -0.411434,-0.65345 -0.290424,-0.0484 -0.60505,-0.0726 -0.96808,-0.0726 -3.533492,0 -6.437732,2.54121 -7.01858,5.78428 z"
         id="path74104" />
      <path
         d="m 97.410042,229.97046 -0.193616,-7.57523 c 0,-0.36303 -0.217818,-0.53244 -0.580848,-0.53244 h -2.855836 c -0.36303,0 -0.60505,0.16941 -0.750262,0.53244 l -2.855836,7.57523 -0.750262,-7.59943 c -0.0484,-0.36303 -0.266222,-0.50824 -0.60505,-0.50824 h -3.581896 c -0.435636,0 -0.677656,0.26622 -0.60505,0.70185 l 2.444402,13.84355 c 0.07261,0.31462 0.266222,0.48404 0.60505,0.48404 h 3.001048 c 0.36303,0 0.580848,-0.19362 0.750262,-0.53245 l 2.081372,-4.79199 0.387232,4.79199 c 0.0242,0.33883 0.193616,0.53245 0.556646,0.53245 h 3.02525 c 0.338828,0 0.580848,-0.16942 0.750262,-0.48404 l 7.309,-13.84355 c 0.21782,-0.43563 0.0726,-0.70185 -0.36303,-0.70185 h -3.55769 c -0.33883,0 -0.60505,0.14521 -0.75026,0.50824 z"
         id="path74106" />
      <path
         d="m 110.28553,220.99151 c -1.2827,0 -2.4928,0.94388 -2.71062,2.12978 -0.19362,1.1617 0.67765,2.12978 1.96036,2.12978 1.28271,0 2.49281,-0.96808 2.68642,-2.12978 0.21782,-1.1859 -0.65345,-2.12978 -1.93616,-2.12978 z m -4.35636,15.90072 h 3.02525 c 0.38723,0 0.62925,-0.21782 0.70186,-0.60505 l 1.69414,-9.58399 c 0.0726,-0.41144 -0.14521,-0.60505 -0.55665,-0.53245 l -3.12205,0.50824 c -0.36303,0.0726 -0.60505,0.29043 -0.67766,0.65346 l -1.57313,8.95474 c -0.0726,0.38723 0.12101,0.60505 0.50824,0.60505 z"
         id="path74108" />
      <path
         d="m 121.37005,225.73511 c -1.08909,0 -2.37179,0.48404 -3.38828,1.3069 l -0.0242,-0.50824 c 0,-0.31462 -0.19361,-0.48404 -0.55664,-0.48404 h -3.14626 c -0.38724,0 -0.65346,0.21782 -0.72606,0.60505 l -1.69414,9.6324 c -0.0726,0.38723 0.12101,0.60505 0.50824,0.60505 h 3.31567 c 0.38723,0 0.62925,-0.21782 0.70186,-0.60505 l 1.13749,-6.36513 c 1.50053,-1.2827 3.43669,-1.33111 3.00105,1.2101 l -0.91967,5.15503 c -0.0726,0.38723 0.12101,0.60505 0.50824,0.60505 h 3.02525 c 0.38723,0 0.62925,-0.21782 0.70186,-0.60505 l 0.99228,-5.63907 c 0.65345,-3.6303 -1.11329,-4.913 -3.43669,-4.913 z"
         id="path74110" />
      <path
         d="m 128.07402,227.93749 c -1.98457,2.4928 -2.17818,7.16379 0.31462,8.56751 1.62154,0.91967 5.39705,1.2585 8.01087,-0.36303 0.29042,-0.21782 0.38723,-0.48404 0.26622,-0.82287 l -0.38723,-1.08909 c -0.12101,-0.38723 -0.41144,-0.48404 -0.79867,-0.33883 -4.11434,1.52473 -6.12311,-0.21782 -4.69519,-3.41248 0.62925,-1.42792 2.4202,-2.3718 3.26727,-1.69414 0.55665,0.41143 -0.0484,1.57313 -1.64573,1.79095 -0.36303,0.0484 -0.60505,0.16941 -0.67766,0.48404 -0.0968,0.36303 -0.16941,0.79866 -0.19362,1.2343 -0.0242,0.38723 0.16942,0.60505 0.58085,0.62925 3.21887,0.19362 6.29252,-1.47632 5.66327,-4.45317 -0.67766,-3.21886 -7.11539,-3.79971 -9.705,-0.53244 z"
         id="path74112" />
      <path
         d="m 195.18615,229.97046 -0.19362,-7.57523 c 0,-0.36303 -0.21782,-0.53244 -0.58085,-0.53244 h -2.85583 c -0.36303,0 -0.60505,0.16941 -0.75027,0.53244 l -2.85583,7.57523 -0.75026,-7.59943 c -0.0484,-0.36303 -0.26623,-0.50824 -0.60505,-0.50824 h -3.5819 c -0.43564,0 -0.67766,0.26622 -0.60505,0.70185 l 2.4444,13.84355 c 0.0726,0.31462 0.26622,0.48404 0.60505,0.48404 h 3.00105 c 0.36303,0 0.58085,-0.19362 0.75026,-0.53245 l 2.08137,-4.79199 0.38724,4.79199 c 0.0242,0.33883 0.19361,0.53245 0.55664,0.53245 h 3.02525 c 0.33883,0 0.58085,-0.16942 0.75026,-0.48404 l 7.30901,-13.84355 c 0.21782,-0.43563 0.0726,-0.70185 -0.36303,-0.70185 h -3.5577 c -0.33882,0 -0.60505,0.14521 -0.75026,0.50824 z"
         id="path74114" />
      <path
         d="m 203.70526,236.89223 h 3.31568 c 0.38723,0 0.62925,-0.21782 0.70186,-0.60505 l 1.64573,-9.29357 0.72606,-5.34864 c 0.0484,-0.41144 -0.16941,-0.62925 -0.55664,-0.55665 l -3.19467,0.50824 c -0.38723,0.0726 -0.60505,0.29043 -0.67765,0.65346 l -2.46861,14.03716 c -0.0726,0.38723 0.12101,0.60505 0.50824,0.60505 z m 9.02735,-11.27813 c -0.36303,0 -0.75026,0.0484 -1.1859,0.19361 -0.43563,0.14521 -0.62925,0.41144 -0.70186,0.75026 l -0.33882,1.93616 c -0.0726,0.38724 0.12101,0.53245 0.50824,0.58085 0.65345,0.0968 1.06489,0.72606 0.84707,2.05717 l -0.91968,5.15503 c -0.0726,0.38723 0.12101,0.60505 0.50824,0.60505 h 3.02525 c 0.38724,0 0.62926,-0.21782 0.70186,-0.60505 l 0.99228,-5.63907 c 0.65346,-3.6303 -1.08909,-5.03401 -3.43668,-5.03401 z"
         id="path74116" />
      <path
         d="m 222.2198,220.99151 c -1.28271,0 -2.49281,0.94388 -2.71063,2.12978 -0.19361,1.1617 0.67766,2.12978 1.96036,2.12978 1.28271,0 2.49281,-0.96808 2.68643,-2.12978 0.21781,-1.1859 -0.65346,-2.12978 -1.93616,-2.12978 z m -4.35636,15.90072 h 3.02525 c 0.38723,0 0.62925,-0.21782 0.70185,-0.60505 l 1.69414,-9.58399 c 0.0726,-0.41144 -0.14521,-0.60505 -0.55664,-0.53245 l -3.12206,0.50824 c -0.36303,0.0726 -0.60505,0.29043 -0.67766,0.65346 l -1.57313,8.95474 c -0.0726,0.38723 0.12101,0.60505 0.50825,0.60505 z"
         id="path74118" />
      <path
         d="m 231.58599,221.08832 -3.41248,0.50824 c -0.36303,0.0484 -0.60505,0.29043 -0.67766,0.65346 l -0.58084,3.36408 h -1.01649 c -0.38723,0 -0.65345,0.21781 -0.70186,0.60505 l -0.14521,0.75026 c -0.0726,0.38723 0.12101,0.60505 0.50824,0.60505 h 1.01649 l -1.54893,8.71272 c -0.0726,0.38723 0.12101,0.60505 0.50824,0.60505 h 3.31568 c 0.38723,0 0.62925,-0.21782 0.70185,-0.60505 l 1.54893,-8.71272 h 1.01649 c 0.38723,0 0.62925,-0.21782 0.70185,-0.60505 l 0.14522,-0.75026 c 0.0484,-0.38724 -0.12101,-0.60505 -0.50825,-0.60505 h -1.01648 l 0.70186,-3.96913 c 0.0726,-0.41144 -0.14521,-0.62925 -0.55665,-0.55665 z"
         id="path74120" />
      <path
         d="m 234.95008,227.93749 c -1.98457,2.4928 -2.17818,7.16379 0.31462,8.56751 1.62154,0.91967 5.39705,1.2585 8.01087,-0.36303 0.29042,-0.21782 0.38723,-0.48404 0.26622,-0.82287 l -0.38723,-1.08909 c -0.12101,-0.38723 -0.41144,-0.48404 -0.79867,-0.33883 -4.11434,1.52473 -6.12311,-0.21782 -4.69519,-3.41248 0.62925,-1.42792 2.4202,-2.3718 3.26727,-1.69414 0.55665,0.41143 -0.0484,1.57313 -1.64573,1.79095 -0.36303,0.0484 -0.60505,0.16941 -0.67766,0.48404 -0.0968,0.36303 -0.16941,0.79866 -0.19362,1.2343 -0.0242,0.38723 0.16942,0.60505 0.58085,0.62925 3.21887,0.19362 6.29252,-1.47632 5.66327,-4.45317 -0.67766,-3.21886 -7.11539,-3.79971 -9.705,-0.53244 z"
         id="path74122" />
      <path
         d="m 269.63154,229.97046 -0.19362,-7.57523 c 0,-0.36303 -0.21782,-0.53244 -0.58085,-0.53244 h -2.85583 c -0.36303,0 -0.60505,0.16941 -0.75027,0.53244 l -2.85583,7.57523 -0.75026,-7.59943 c -0.0484,-0.36303 -0.26623,-0.50824 -0.60505,-0.50824 h -3.5819 c -0.43564,0 -0.67766,0.26622 -0.60505,0.70185 l 2.4444,13.84355 c 0.0726,0.31462 0.26622,0.48404 0.60505,0.48404 h 3.00105 c 0.36303,0 0.58085,-0.19362 0.75026,-0.53245 l 2.08137,-4.79199 0.38724,4.79199 c 0.0242,0.33883 0.19361,0.53245 0.55664,0.53245 h 3.02525 c 0.33883,0 0.58085,-0.16942 0.75026,-0.48404 l 7.30901,-13.84355 c 0.21781,-0.43563 0.0726,-0.70185 -0.36303,-0.70185 h -3.5577 c -0.33882,0 -0.60505,0.14521 -0.75026,0.50824 z"
         id="path74124" />
      <path
         d="m 282.50701,220.99151 c -1.2827,0 -2.4928,0.94388 -2.71062,2.12978 -0.19362,1.1617 0.67765,2.12978 1.96036,2.12978 1.28271,0 2.49281,-0.96808 2.68642,-2.12978 0.21782,-1.1859 -0.65345,-2.12978 -1.93616,-2.12978 z m -4.35636,15.90072 h 3.02525 c 0.38723,0 0.62925,-0.21782 0.70186,-0.60505 l 1.69414,-9.58399 c 0.0726,-0.41144 -0.14521,-0.60505 -0.55665,-0.53245 l -3.12205,0.50824 c -0.36303,0.0726 -0.60505,0.29043 -0.67766,0.65346 l -1.57313,8.95474 c -0.0726,0.38723 0.12101,0.60505 0.50824,0.60505 z"
         id="path74126" />
      <path
         d="m 293.59154,225.73511 c -1.08909,0 -2.37179,0.48404 -3.38828,1.3069 l -0.0242,-0.50824 c 0,-0.31462 -0.19362,-0.48404 -0.55665,-0.48404 h -3.14626 c -0.38723,0 -0.65345,0.21782 -0.72606,0.60505 l -1.69414,9.6324 c -0.0726,0.38723 0.12101,0.60505 0.50825,0.60505 h 3.31567 c 0.38723,0 0.62925,-0.21782 0.70186,-0.60505 l 1.13749,-6.36513 c 1.50053,-1.2827 3.43669,-1.33111 3.00105,1.2101 l -0.91968,5.15503 c -0.0726,0.38723 0.12101,0.60505 0.50825,0.60505 h 3.02525 c 0.38723,0 0.62925,-0.21782 0.70185,-0.60505 l 0.99229,-5.63907 c 0.65345,-3.6303 -1.1133,-4.913 -3.43669,-4.913 z"
         id="path74128" />
      <path
         d="m 300.29551,227.93749 c -1.98457,2.4928 -2.17818,7.16379 0.31462,8.56751 1.62154,0.91967 5.39705,1.2585 8.01086,-0.36303 0.29043,-0.21782 0.38724,-0.48404 0.26623,-0.82287 l -0.38724,-1.08909 c -0.12101,-0.38723 -0.41143,-0.48404 -0.79866,-0.33883 -4.11434,1.52473 -6.12311,-0.21782 -4.69519,-3.41248 0.62925,-1.42792 2.4202,-2.3718 3.26727,-1.69414 0.55665,0.41143 -0.0484,1.57313 -1.64573,1.79095 -0.36303,0.0484 -0.60505,0.16941 -0.67766,0.48404 -0.0968,0.36303 -0.16941,0.79866 -0.19362,1.2343 -0.0242,0.38723 0.16942,0.60505 0.58085,0.62925 3.21887,0.19362 6.29252,-1.47632 5.66327,-4.45317 -0.67766,-3.21886 -7.11539,-3.79971 -9.705,-0.53244 z"
         id="path74130" />
      <path
         d="m 369.12597,223.31491 h -2.22659 c -0.38723,0 -0.58085,-0.21782 -0.50824,-0.60505 l 0.60505,-3.38828 c 0.0484,-0.36303 0.29042,-0.58085 0.67766,-0.65346 l 2.27498,-0.36303 c 0.43564,-0.0726 0.62926,0.14521 0.55665,0.55665 l -0.67766,3.84812 c -0.0726,0.38723 -0.31462,0.60505 -0.70185,0.60505 z m -4.16275,0 h -2.22658 c -0.38723,0 -0.58085,-0.21782 -0.50824,-0.60505 l 0.48404,-2.71063 c 0.0484,-0.36303 0.29042,-0.58085 0.67765,-0.65345 l 2.27499,-0.36303 c 0.43564,-0.0726 0.62925,0.12101 0.55665,0.53244 l -0.55665,3.19467 c -0.0726,0.38723 -0.31463,0.60505 -0.70186,0.60505 z"
         id="path74132" />
      <path
         d="m 383.86502,222.51624 -0.16942,7.91405 -0.50824,5.88109 c -0.0484,0.36303 0.16942,0.58085 0.53245,0.58085 h 3.36407 c 0.41144,0 0.65346,-0.24202 0.67766,-0.65346 l 0.53244,-13.81934 c 0.0242,-0.38723 -0.16941,-0.55664 -0.53244,-0.55664 h -3.21887 c -0.41143,0 -0.67765,0.24202 -0.67765,0.65345 z m -13.69833,14.37599 h 3.38828 c 0.36303,0 0.62925,-0.21782 0.72606,-0.58085 l 1.59733,-6.0021 0.79866,6.07471 c 0.0484,0.33882 0.26623,0.50824 0.60505,0.50824 h 2.73483 c 0.33883,0 0.60505,-0.16942 0.75026,-0.50824 l 1.25851,-2.54121 c 0.12101,-0.26623 0.16941,-0.48404 0.16941,-0.75027 l 0.16941,-6.34092 c 0,-0.58085 -0.45983,-0.65345 -0.72606,-0.0484 l -1.91195,4.13854 -0.96808,-8.4223 c -0.0242,-0.36303 -0.24202,-0.53244 -0.62926,-0.45984 l -3.6303,0.55665 c -0.33882,0.0484 -0.58084,0.29042 -0.67765,0.62925 l -4.09014,13.09328 c -0.12101,0.41144 0.0242,0.65346 0.43564,0.65346 z"
         id="path74134" />
      <path
         d="m 390.2785,231.47098 c -0.58085,3.24307 0.62925,5.76008 3.96913,5.76008 1.18589,0 2.22658,-0.36303 2.95264,-0.96808 l 0.0242,0.31462 c 0.0242,0.19362 0.19362,0.31463 0.55665,0.31463 h 2.78323 c 0.38723,0 0.62925,-0.21782 0.70186,-0.60505 l 1.69414,-9.6324 c 0.0726,-0.38723 -0.0968,-0.60505 -0.48404,-0.60505 h -2.75903 c -0.36303,0 -0.72606,0.0726 -0.79867,0.45984 l -0.89547,5.08242 c -0.16942,0.99228 -0.91968,2.3718 -1.93616,2.3718 -0.84707,0 -1.69414,-0.50825 -1.37952,-2.3718 0.21782,-1.28271 0.87128,-2.22658 1.76675,-2.34759 0.36303,-0.0484 0.58085,-0.14522 0.65345,-0.53245 l 0.38724,-2.15398 c 0.0726,-0.38723 -0.0726,-0.65345 -0.43564,-0.72606 -0.31463,-0.0726 -0.65345,-0.0968 -1.04069,-0.0968 -3.36407,0 -5.17922,2.4928 -5.76007,5.73587 z"
         id="path74136" />
      <path
         d="m 403.95261,236.89223 h 3.31567 c 0.38723,0 0.62925,-0.21782 0.70186,-0.60505 l 2.58961,-14.64221 c 0.0726,-0.41144 -0.14521,-0.62925 -0.55664,-0.55665 l -3.41248,0.50824 c -0.36303,0.0484 -0.60505,0.29043 -0.67766,0.65346 l -2.4686,14.03716 c -0.0726,0.38723 0.12101,0.60505 0.50824,0.60505 z"
         id="path74138" />
      <path
         d="m 410.99539,231.47098 c -0.55664,3.24307 1.71835,5.73587 5.22764,5.73587 3.50929,0 6.67975,-2.4928 7.23639,-5.73587 0.43564,-2.396 -0.72606,-4.42897 -2.80743,-5.30024 -0.36303,-0.16941 -0.65345,0.0242 -0.72606,0.43564 l -0.87127,4.8404 c -0.26622,1.50052 -1.28271,2.4444 -2.27499,2.4444 -1.01648,0 -1.62153,-0.94388 -1.35531,-2.4444 0.21782,-1.25851 1.08909,-2.3718 2.10557,-2.46861 0.36303,-0.0484 0.58085,-0.12101 0.65346,-0.50824 l 0.38723,-2.10557 c 0.0726,-0.41144 -0.14521,-0.65346 -0.55665,-0.65346 -3.31567,0.12101 -6.43773,2.54121 -7.01858,5.76008 z"
         id="path74140" />
      <path
         d="m 430.59899,227.50185 0.0242,-0.89547 c 0.0242,-0.38723 -0.16941,-0.55665 -0.53244,-0.55665 h -3.12206 c -0.38723,0 -0.65345,0.21782 -0.72606,0.60505 l -1.69414,9.6324 c -0.0726,0.38723 0.12101,0.60505 0.50824,0.60505 h 3.29148 c 0.38723,0 0.62925,-0.21782 0.70185,-0.60505 l 0.62926,-3.5819 c 0.48404,-2.71062 2.32339,-3.19466 3.99333,-3.14626 0.41143,0 0.67765,-0.21782 0.75026,-0.60505 l 0.43563,-2.58961 c 0.0726,-0.36303 -0.0484,-0.60505 -0.41143,-0.65346 -1.2343,-0.12101 -2.66222,0.58085 -3.84812,1.79095 z"
         id="path74142" />
      <path
         d="m 443.11143,221.08832 -3.41248,0.50824 c -0.36303,0.0484 -0.60505,0.29043 -0.67766,0.65346 l -0.58085,3.36408 h -1.01648 c -0.38723,0 -0.65346,0.21781 -0.70186,0.60505 l -0.14521,0.75026 c -0.0726,0.38723 0.12101,0.60505 0.50824,0.60505 h 1.01648 l -1.54892,8.71272 c -0.0726,0.38723 0.12101,0.60505 0.50824,0.60505 h 3.31567 c 0.38723,0 0.62925,-0.21782 0.70186,-0.60505 l 1.54893,-8.71272 h 1.01648 c 0.38723,0 0.62925,-0.21782 0.70186,-0.60505 l 0.14521,-0.75026 c 0.0484,-0.38724 -0.12101,-0.60505 -0.50824,-0.60505 h -1.01648 l 0.70185,-3.96913 c 0.0726,-0.41144 -0.14521,-0.62925 -0.55664,-0.55665 z"
         id="path74144" />
      <path
         d="m 453.80874,223.31491 h -2.22659 c -0.38723,0 -0.58085,-0.21782 -0.50824,-0.60505 l 0.60505,-3.38828 c 0.0484,-0.36303 0.29042,-0.58085 0.67766,-0.65346 l 2.27498,-0.36303 c 0.43564,-0.0726 0.62926,0.14521 0.55665,0.55665 l -0.67766,3.84812 c -0.0726,0.38723 -0.31462,0.60505 -0.70185,0.60505 z m -4.16275,0 h -2.22658 c -0.38723,0 -0.58085,-0.21782 -0.50824,-0.60505 l 0.48404,-2.71063 c 0.0484,-0.36303 0.29042,-0.58085 0.67765,-0.65345 l 2.27499,-0.36303 c 0.43564,-0.0726 0.62925,0.12101 0.55665,0.53244 l -0.55665,3.19467 c -0.0726,0.38723 -0.31463,0.60505 -0.70186,0.60505 z"
         id="path74146" />
      <path
         d="m 542.58167,229.97046 -0.19362,-7.57523 c 0,-0.36303 -0.21781,-0.53244 -0.58084,-0.53244 h -2.85584 c -0.36303,0 -0.60505,0.16941 -0.75026,0.53244 l -2.85584,7.57523 -0.75026,-7.59943 c -0.0484,-0.36303 -0.26622,-0.50824 -0.60505,-0.50824 h -3.5819 c -0.43563,0 -0.67765,0.26622 -0.60505,0.70185 l 2.44441,13.84355 c 0.0726,0.31462 0.26622,0.48404 0.60505,0.48404 h 3.00104 c 0.36303,0 0.58085,-0.19362 0.75027,-0.53245 l 2.08137,-4.79199 0.38723,4.79199 c 0.0242,0.33883 0.19362,0.53245 0.55665,0.53245 h 3.02525 c 0.33882,0 0.58084,-0.16942 0.75026,-0.48404 l 7.309,-13.84355 c 0.21782,-0.43563 0.0726,-0.70185 -0.36303,-0.70185 h -3.55769 c -0.33883,0 -0.60505,0.14521 -0.75026,0.50824 z"
         id="path74148" />
      <path
         d="m 548.55957,231.47098 c -0.58085,3.24307 0.62925,5.76008 3.96912,5.76008 1.1859,0 2.22659,-0.36303 2.95265,-0.96808 l 0.0242,0.31462 c 0.0242,0.19362 0.19362,0.31463 0.55665,0.31463 h 2.78323 c 0.38723,0 0.62925,-0.21782 0.70185,-0.60505 l 1.69414,-9.6324 c 0.0726,-0.38723 -0.0968,-0.60505 -0.48404,-0.60505 h -2.75902 c -0.36303,0 -0.72606,0.0726 -0.79867,0.45984 l -0.89547,5.08242 c -0.16942,0.99228 -0.91968,2.3718 -1.93616,2.3718 -0.84707,0 -1.69414,-0.50825 -1.37952,-2.3718 0.21782,-1.28271 0.87127,-2.22658 1.76675,-2.34759 0.36303,-0.0484 0.58085,-0.14522 0.65345,-0.53245 l 0.38723,-2.15398 c 0.0726,-0.38723 -0.0726,-0.65345 -0.43563,-0.72606 -0.31463,-0.0726 -0.65346,-0.0968 -1.04069,-0.0968 -3.36408,0 -5.17923,2.4928 -5.76007,5.73587 z"
         id="path74150" />
      <path
         d="m 569.5427,221.08832 -3.41248,0.50824 c -0.36303,0.0484 -0.60505,0.29043 -0.67765,0.65346 l -0.58085,3.36408 h -1.01649 c -0.38723,0 -0.65345,0.21781 -0.70185,0.60505 l -0.14522,0.75026 c -0.0726,0.38723 0.12101,0.60505 0.50825,0.60505 h 1.01648 l -1.54893,8.71272 c -0.0726,0.38723 0.12101,0.60505 0.50824,0.60505 h 3.31568 c 0.38723,0 0.62925,-0.21782 0.70186,-0.60505 l 1.54892,-8.71272 h 1.01649 c 0.38723,0 0.62925,-0.21782 0.70186,-0.60505 l 0.14521,-0.75026 c 0.0484,-0.38724 -0.12101,-0.60505 -0.50824,-0.60505 h -1.01649 l 0.70186,-3.96913 c 0.0726,-0.41144 -0.14521,-0.62925 -0.55665,-0.55665 z"
         id="path74152" />
      <path
         d="m 572.9068,227.93749 c -1.98456,2.4928 -2.17818,7.16379 0.31463,8.56751 1.62153,0.91967 5.39705,1.2585 8.01086,-0.36303 0.29043,-0.21782 0.38723,-0.48404 0.26622,-0.82287 l -0.38723,-1.08909 c -0.12101,-0.38723 -0.41143,-0.48404 -0.79866,-0.33883 -4.11434,1.52473 -6.12311,-0.21782 -4.69519,-3.41248 0.62925,-1.42792 2.4202,-2.3718 3.26727,-1.69414 0.55664,0.41143 -0.0484,1.57313 -1.64574,1.79095 -0.36303,0.0484 -0.60505,0.16941 -0.67765,0.48404 -0.0968,0.36303 -0.16942,0.79866 -0.19362,1.2343 -0.0242,0.38723 0.16941,0.60505 0.58085,0.62925 3.21886,0.19362 6.29252,-1.47632 5.66327,-4.45317 -0.67766,-3.21886 -7.11539,-3.79971 -9.70501,-0.53244 z"
         id="path74154" />
      <path
         d="m 589.84817,227.50185 0.0242,-0.89547 c 0.0242,-0.38723 -0.16941,-0.55665 -0.53244,-0.55665 h -3.12206 c -0.38723,0 -0.65346,0.21782 -0.72606,0.60505 l -1.69414,9.6324 c -0.0726,0.38723 0.12101,0.60505 0.50824,0.60505 h 3.29147 c 0.38723,0 0.62925,-0.21782 0.70186,-0.60505 l 0.62925,-3.5819 c 0.48404,-2.71062 2.32339,-3.19466 3.99333,-3.14626 0.41144,0 0.67766,-0.21782 0.75026,-0.60505 l 0.43564,-2.58961 c 0.0726,-0.36303 -0.0484,-0.60505 -0.41143,-0.65346 -1.23431,-0.12101 -2.66222,0.58085 -3.84812,1.79095 z"
         id="path74156" />
    </g>
  </g>
</svg>
